<?xml version="1.0" standalone="no"?>
<!DOCTYPE svg PUBLIC "-//W3C//DTD SVG 20010904//EN"
 "http://www.w3.org/TR/2001/REC-SVG-20010904/DTD/svg10.dtd">
<svg version="1.0" xmlns="http://www.w3.org/2000/svg"
 width="132.000000pt" height="132.000000pt" viewBox="0 0 132.000000 132.000000"
 preserveAspectRatio="xMidYMid meet">

<g transform="translate(0.000000,132.000000) scale(0.100000,-0.100000)"
fill="#000000" stroke="none">
<path d="M577 1136 c-91 -25 -184 -113 -207 -194 -16 -61 -12 -162 10 -210 27
-59 69 -112 90 -112 32 0 70 40 81 86 6 24 22 55 35 69 24 26 54 34 54 14 0
-6 11 -20 25 -31 14 -11 25 -24 25 -30 0 -6 7 -16 17 -23 15 -11 14 -14 -4
-32 -11 -11 -25 -22 -30 -24 -6 -2 -12 -25 -15 -51 l-6 -48 42 0 c45 1 139 38
99 39 -21 1 -23 6 -23 51 0 31 -10 73 -25 110 -31 73 -31 96 -2 120 92 77 97
83 97 111 0 27 -3 29 -37 29 -21 0 -51 8 -68 18 -45 27 -73 32 -126 21 -37 -8
-57 -21 -88 -54 -54 -58 -53 -77 5 -111 46 -27 47 -27 61 -8 8 10 11 28 9 39
-3 11 -8 31 -11 45 -5 22 -3 21 9 -5 19 -38 20 -76 2 -100 -12 -16 -18 -17
-39 -8 -24 11 -25 10 -40 -43 -9 -31 -28 -76 -42 -100 -31 -53 -41 -50 -76 29
-65 147 7 320 157 377 178 66 357 -47 395 -249 8 -44 8 -44 3 12 -15 185 -199
313 -377 263z m133 -151 c0 -8 -4 -15 -9 -15 -13 0 -22 16 -14 24 11 11 23 6
23 -9z"/>
<path d="M808 826 c-20 -14 -24 -36 -8 -36 6 0 10 5 10 10 0 6 7 10 15 10 8 0
15 7 15 15 0 18 -9 19 -32 1z"/>
<path d="M856 833 c-12 -12 -6 -25 9 -19 9 3 15 0 15 -9 0 -10 -11 -15 -35
-15 -43 0 -55 -22 -30 -50 22 -25 37 -25 57 -2 27 29 31 75 9 89 -10 6 -22 9
-25 6z"/>
<path d="M650 710 c0 -5 5 -10 10 -10 6 0 10 5 10 10 0 6 -4 10 -10 10 -5 0
-10 -4 -10 -10z"/>
<path d="M437 523 c-4 -3 -7 -16 -7 -27 -1 -20 -1 -20 -13 2 -17 31 -28 17
-15 -19 13 -38 24 -37 38 7 12 34 10 51 -3 37z"/>
<path d="M528 524 c-5 -4 -8 -17 -9 -28 0 -19 -1 -18 -11 4 -12 30 -23 11 -14
-25 8 -33 24 -32 37 2 11 29 9 59 -3 47z"/>
<path d="M647 523 c-4 -3 -7 -19 -7 -35 0 -21 5 -28 19 -28 27 0 33 13 21 44
-9 26 -21 32 -33 19z"/>
<path d="M820 516 c0 -19 -16 -21 -23 -3 -9 25 -16 0 -8 -29 5 -16 10 -23 10
-16 1 17 21 15 21 -3 0 -8 5 -15 10 -15 6 0 10 15 10 34 0 19 -4 38 -10 41 -5
3 -10 -1 -10 -9z"/>
<path d="M862 518 c-7 -7 -12 -23 -12 -36 0 -19 5 -23 23 -20 17 2 22 10 22
32 0 32 -14 43 -33 24z m15 -40 c-3 -7 -5 -2 -5 12 0 14 2 19 5 13 2 -7 2 -19
0 -25z"/>
<path d="M460 490 c0 -16 5 -30 10 -30 6 0 10 14 10 30 0 17 -4 30 -10 30 -5
0 -10 -13 -10 -30z"/>
<path d="M553 489 c-10 -27 -10 -30 4 -25 8 4 22 1 29 -5 16 -13 18 -1 8 39
-9 31 -28 27 -41 -9z"/>
<path d="M698 485 c2 -19 6 -35 8 -35 2 0 4 16 4 35 0 19 -4 35 -8 35 -4 0 -6
-16 -4 -35z"/>
<path d="M729 499 c-9 -17 -8 -25 4 -36 8 -9 20 -12 26 -9 17 11 13 26 -5 19
-12 -4 -15 -1 -12 13 2 10 10 18 16 17 7 -2 12 2 12 7 0 18 -29 10 -41 -11z"/>
<path d="M820 377 c-24 -41 -40 -48 -40 -17 0 13 5 18 15 14 8 -4 15 -1 15 6
0 6 -10 10 -22 8 -15 -2 -24 -11 -26 -27 -5 -31 17 -45 40 -24 11 10 18 12 18
5 0 -7 9 -12 20 -12 27 0 38 46 17 67 -14 15 -18 13 -37 -20z m30 -19 c0 -16
-3 -19 -11 -11 -6 6 -8 16 -5 22 11 17 16 13 16 -11z"/>
<path d="M551 388 c-1 -19 -21 -26 -21 -8 0 6 -4 10 -10 10 -5 0 -10 -13 -10
-30 0 -16 5 -30 10 -30 6 0 10 5 10 10 0 6 5 10 10 10 6 0 10 -7 10 -15 0 -12
5 -13 26 -5 19 7 31 7 40 -1 16 -13 18 -1 8 39 -9 30 -28 28 -40 -5 l-11 -28
-11 35 c-5 19 -11 27 -11 18z"/>
<path d="M647 393 c-11 -10 -8 -61 3 -68 6 -3 10 -1 10 6 0 6 7 17 17 24 9 7
14 19 10 29 -6 16 -28 22 -40 9z m20 -25 c-3 -8 -6 -5 -6 6 -1 11 2 17 5 13 3
-3 4 -12 1 -19z"/>
<path d="M713 393 c-15 -5 -17 -41 -4 -62 7 -10 13 -11 27 -2 19 10 19 10 0
11 -15 0 -16 3 -7 14 9 11 9 15 -1 19 -10 4 -10 6 0 6 6 1 12 6 12 11 0 11 -7
12 -27 3z"/>
<path d="M454 364 c-4 -17 -2 -29 6 -34 15 -9 40 -2 40 11 0 4 -7 6 -15 3 -11
-4 -15 0 -15 16 0 16 4 20 15 16 8 -3 15 -1 15 4 0 6 -9 10 -20 10 -13 0 -22
-9 -26 -26z"/>
</g>
</svg>
